<?xml version="1.0" encoding="UTF-8"?>
<svg width="60px" height="60px" viewBox="0 0 60 60" version="1.1" xmlns="http://www.w3.org/2000/svg" xmlns:xlink="http://www.w3.org/1999/xlink">
    <!-- Generator: Sketch 51.2 (57519) - http://www.bohemiancoding.com/sketch -->
    <title>Image</title>
    <desc>Created with Sketch.</desc>
    <defs></defs>
    <g id="Image" stroke="none" stroke-width="1" fill="none" fill-rule="evenodd" fill-opacity="0.700000048">
        <g id="Group-7-Copy-2" transform="translate(6.000000, 6.000000)" fill="#5D626B" fill-rule="nonzero">
            <circle id="Oval" cx="29" cy="15" r="3"></circle>
            <path d="M0.0413436693,47.6916451 C0.0413436693,47.6916451 0.0413436693,47.7338501 0.0413436693,47.6916451 C0.0413436693,47.7338501 0.0413436693,47.7338501 0.0826873385,47.7338501 C0.124031008,47.8182601 0.165374677,47.9448751 0.206718346,48.0292851 C0.206718346,48.0714901 0.248062016,48.0714901 0.248062016,48.1136951 C0.248062016,48.1559001 0.289405685,48.1559001 0.289405685,48.1981051 C0.289405685,48.1981051 0.330749354,48.2403101 0.330749354,48.2403101 C0.372093023,48.3247201 0.454780362,48.3669251 0.496124031,48.4513351 C0.496124031,48.4513351 0.5374677,48.4935401 0.5374677,48.4935401 C0.57881137,48.535745 0.57881137,48.535745 0.620155039,48.57795 C0.661498708,48.57795 0.661498708,48.620155 0.661498708,48.620155 C0.702842377,48.66236 0.744186047,48.66236 0.785529716,48.704565 C0.785529716,48.704565 0.826873385,48.74677 0.826873385,48.74677 C0.826873385,48.74677 0.868217054,48.74677 0.868217054,48.788975 C0.909560724,48.83118 0.992248062,48.83118 1.03359173,48.873385 C1.0749354,48.873385 1.0749354,48.873385 1.11627907,48.91559 C1.15762274,48.91559 1.19896641,48.957795 1.19896641,48.957795 C1.32299742,49 1.44702842,49 1.57105943,49 L46.3049096,49 C47.255814,49 48,48.2403101 48,47.2695952 L48,35.8742463 L48,1.73040482 C48,0.759689922 47.255814,0 46.3049096,0 L1.69509044,0 C0.744186047,0 0,0.759689922 0,1.73040482 L0,35.7898363 L0,47.1851852 C0,47.3118002 0.0413436693,47.4806202 0.0413436693,47.6072351 C0.0413436693,47.6494401 0.0413436693,47.6916451 0.0413436693,47.6916451 Z M44.7338501,45.4969854 L7.35917313,45.4969854 L34.9767442,27.0534022 L44.7338501,36.5495263 L44.7338501,45.4969854 Z M3.39018088,3.46080965 L44.7338501,3.46080965 L44.7338501,31.7803618 L36.3410853,23.5925926 C35.7622739,23.0439276 34.8940568,22.9595177 34.2325581,23.3815676 L26.3359173,28.6993971 L20.8372093,23.0439276 C20.2583979,22.4530577 19.3901809,22.3686477 18.7286822,22.7906977 L3.39018088,32.6666667 L3.39018088,3.46080965 Z M3.39018088,36.7605512 L19.3901809,26.4625323 L23.4418605,30.6408269 L3.39018088,44.0198105 L3.39018088,36.7605512 Z" id="Shape"></path>
        </g>
    </g>
</svg>